<svg xmlns="http://www.w3.org/2000/svg" width="819.609" height="414.12"><style>.st0{fill:#333}.st1{opacity:.63}.st2{fill:#00a9d7}</style><g id="Layer_2"><path class="st0" d="M756.142 348.616H66.031V56.694h5v286.922h685.111z"/><path class="st0" d="M52.172 69.948l2.929 2.728 13.426-14.447 13.43 14.447 2.929-2.728-16.359-17.592zM742.888 362.476l-2.729-2.93 14.448-13.426-14.448-13.43 2.729-2.929 17.592 16.359z"/><g class="st1"><path class="st2" d="M117.612 316.077c7.846 0 15.363-6.899 15-15-.364-8.127-6.591-15-15-15-7.846 0-15.363 6.899-15 15 .364 8.127 6.591 15 15 15z"/></g><g class="st1"><path class="st2" d="M153.28 316.077c7.846 0 15.363-6.899 15-15-.364-8.127-6.591-15-15-15-7.846 0-15.363 6.899-15 15 .364 8.127 6.591 15 15 15z"/></g><g class="st1"><path class="st2" d="M206.022 316.077c7.846 0 15.363-6.899 15-15-.364-8.127-6.591-15-15-15-7.846 0-15.363 6.899-15 15 .364 8.127 6.591 15 15 15z"/></g><g class="st1"><path class="st2" d="M283.37 316.077c7.846 0 15.363-6.899 15-15-.364-8.127-6.591-15-15-15-7.846 0-15.363 6.899-15 15 .364 8.127 6.59 15 15 15z"/></g><g class="st1"><path class="st2" d="M468.154 316.077c7.846 0 15.363-6.899 15-15-.364-8.127-6.591-15-15-15-7.846 0-15.363 6.899-15 15 .364 8.127 6.591 15 15 15z"/></g><g class="st1"><path class="st2" d="M653.93 144.299c7.846 0 15.363-6.899 15-15-.364-8.127-6.591-15-15-15-7.846 0-15.363 6.899-15 15 .364 8.127 6.591 15 15 15z"/></g><g class="st1"><path class="st2" d="M628.263 144.299c7.846 0 15.363-6.899 15-15-.364-8.127-6.591-15-15-15-7.846 0-15.363 6.899-15 15 .364 8.127 6.59 15 15 15z"/></g><g class="st1"><path class="st2" d="M585.52 144.299c7.846 0 15.363-6.899 15-15-.364-8.127-6.591-15-15-15-7.846 0-15.363 6.899-15 15 .364 8.127 6.591 15 15 15z"/></g><g class="st1"><path class="st2" d="M518.173 144.299c7.846 0 15.363-6.899 15-15-.364-8.127-6.591-15-15-15-7.846 0-15.363 6.899-15 15 .364 8.127 6.591 15 15 15z"/></g><g class="st1"><path class="st2" d="M303.388 144.299c7.846 0 15.363-6.899 15-15-.364-8.127-6.591-15-15-15-7.846 0-15.363 6.899-15 15 .364 8.127 6.591 15 15 15z"/></g><path d="M265.612 303.077h-5v-4h5v4zm-11 0h-5v-4h5v4zm-11 0h-5v-4h5v4zm-11 0h-5v-4h5v4zm-11 0h-5v-4h5v4zm-11 0h-5v-4h5v4zm-11 0h-5v-4h5v4zm-11 0h-5v-4h5v4zm-11 0h-5v-4h5v4zm-11 0h-5v-4h5v4zm-11 0h-5v-4h5v4zm-11 0h-5v-4h5v4zm-11 0h-5v-4h5v4zm-11 0h-5v-4h5v4zm149.021-.005l-.037-4a120.97 120.97 0 0 0 4.916-.147l.204 3.994c-1.675.086-3.385.137-5.083.153zm11.162-.613l-.4-3.98c1.634-.164 3.275-.364 4.88-.594l.567 3.959c-1.659.238-3.358.445-5.047.615zm11.06-1.627l-.761-3.928c1.596-.309 3.213-.657 4.806-1.036l.924 3.893c-1.646.39-3.318.75-4.969 1.071zm10.866-2.627l-1.115-3.842c1.568-.455 3.147-.949 4.692-1.469l1.275 3.791c-1.598.537-3.23 1.049-4.852 1.52zm10.583-3.605l-1.461-3.725c1.531-.6 3.058-1.235 4.537-1.89l1.617 3.658a118.68 118.68 0 0 1-4.693 1.957zm10.208-4.551l-1.793-3.576c1.451-.728 2.914-1.5 4.348-2.295l1.939 3.498c-1.482.821-2.993 1.62-4.494 2.373zm9.751-5.463l-2.111-3.396a118.112 118.112 0 0 0 4.121-2.682l2.25 3.307a124.632 124.632 0 0 1-4.26 2.771zm9.216-6.326l-2.412-3.191a115.87 115.87 0 0 0 3.858-3.044l2.543 3.088a123.567 123.567 0 0 1-3.989 3.147zm8.599-7.138l-2.693-2.959a117.568 117.568 0 0 0 3.566-3.383l2.812 2.845a125.581 125.581 0 0 1-3.685 3.497zm7.937-7.746l-2.828-2.828 3.536-3.536 2.828 2.828-3.536 3.536zm7.778-7.779l-2.828-2.828 3.536-3.536 2.828 2.828-3.536 3.536zm7.778-7.778l-2.828-2.828 3.535-3.535 2.828 2.828-3.535 3.535zm7.779-7.778l-2.828-2.828 3.535-3.535 2.828 2.828-3.535 3.535zm7.778-7.779l-2.828-2.828 3.535-3.535 2.828 2.828-3.535 3.535zm7.778-7.778l-2.828-2.828 3.535-3.535 2.828 2.828-3.535 3.535zm7.778-7.777l-2.828-2.828 3.536-3.536 2.828 2.828-3.536 3.536zm7.778-7.779l-2.828-2.828 3.536-3.536 2.828 2.828-3.536 3.536zm7.778-7.778l-2.828-2.828 3.536-3.536 2.828 2.828-3.536 3.536zm7.779-7.778l-2.828-2.828 3.535-3.535 2.828 2.828-3.535 3.535zm7.778-7.779l-2.828-2.828 3.535-3.535 2.828 2.828-3.535 3.535zm7.778-7.778l-2.828-2.828 3.535-3.535 2.828 2.828-3.535 3.535zm7.779-7.778l-2.828-2.828 3.535-3.535 2.828 2.828-3.535 3.535zm7.789-7.653l-2.713-2.94a124.44 124.44 0 0 1 3.808-3.369l2.588 3.05a117.696 117.696 0 0 0-3.683 3.259zm8.274-6.965l-2.434-3.174a119.89 119.89 0 0 1 4.098-3.009l2.299 3.273a119.07 119.07 0 0 0-3.963 2.91zm8.874-6.181l-2.135-3.383a123.756 123.756 0 0 1 4.354-2.623l1.992 3.469a118.994 118.994 0 0 0-4.211 2.537zm9.398-5.349l-1.818-3.563a123.346 123.346 0 0 1 4.574-2.215l1.668 3.635c-1.481.68-2.969 1.401-4.424 2.143zm9.846-4.471l-1.486-3.714a123.042 123.042 0 0 1 4.757-1.79l1.33 3.772a121.197 121.197 0 0 0-4.601 1.732zm10.213-3.556l-1.143-3.833c1.618-.482 3.267-.937 4.899-1.351l.982 3.878c-1.578.4-3.173.839-4.738 1.306zm10.492-2.613l-.789-3.922c1.656-.333 3.34-.635 5.002-.898l.625 3.951c-1.608.255-3.235.547-4.838.869zm10.686-1.647l-.428-3.977c1.673-.181 3.376-.328 5.062-.439l.264 3.991c-1.632.108-3.279.251-4.898.425zm10.792-.666l-.066-4c.664-.011 1.328-.017 1.993-.017h3.04v4h-3.04c-.644.001-1.286.006-1.927.017zm169.967-.016h-5v-4h5v4zm-11 0h-5v-4h5v4zm-11 0h-5v-4h5v4zm-11 0h-5v-4h5v4zm-11 0h-5v-4h5v4zm-11 0h-5v-4h5v4zm-11 0h-5v-4h5v4zm-11 0h-5v-4h5v4zm-11 0h-5v-4h5v4zm-11 0h-5v-4h5v4zm-11 0h-5v-4h5v4zm-11 0h-5v-4h5v4zm-11 0h-5v-4h5v4zm-11 0h-5v-4h5v4zm-11 0h-5v-4h5v4z" fill="#ff414e"/></g></svg>