<svg width="820" height="312" viewBox="0 0 820 312" fill="none" xmlns="http://www.w3.org/2000/svg">
<rect width="820" height="312" fill="#E5E5E5"/>
<rect width="820" height="312" fill="white"/>
<path d="M186.294 37.25C176.575 37.2812 169.838 38.1375 161.694 39.5437C137.644 43.7312 133.263 52.525 133.263 68.7312V93.5H189.513V106H131.125H103.938C87.4627 106 73.0439 113.762 68.4752 132.369C63.3127 153.725 63.0814 167.1 68.4752 189.4C72.5689 206.031 81.5877 218.5 98.0689 218.5H120.769V186.6C120.769 168.062 137.556 149.75 156.794 149.75H202.019C217.788 149.75 233.269 138.112 233.269 122.394V68.7312C233.269 53.4875 222.275 42.0875 206.906 39.5312C207.288 39.4937 195.931 37.2125 186.294 37.25ZM155.144 62.25C160.275 62.25 164.519 66.4812 164.519 71.6375C164.519 76.8437 160.275 81 155.144 81C149.913 81 145.769 76.85 145.769 71.6375C145.769 66.5 149.913 62.25 155.144 62.25Z" fill="#0277BD"/>
<path d="M180.238 274.75C189.956 274.719 196.694 273.863 204.838 272.456C228.888 268.269 233.269 259.475 233.269 243.269V218.5H177.019V206H235.413H262.6C279.075 206 293.494 198.238 298.063 179.631C303.225 158.275 303.456 144.9 298.063 122.6C293.963 105.969 284.944 93.5 268.463 93.5H245.763V125.4C245.763 143.938 228.975 162.25 209.738 162.25H164.513C148.744 162.25 133.263 173.888 133.263 189.606V243.269C133.263 258.513 144.256 269.913 159.625 272.469C159.244 272.506 170.6 274.788 180.238 274.75ZM211.394 249.75C206.263 249.75 202.019 245.519 202.019 240.363C202.019 235.156 206.263 231 211.394 231C216.625 231 220.769 235.15 220.769 240.363C220.769 245.5 216.619 249.75 211.394 249.75Z" fill="#FFC107"/>
<path d="M418.679 113.4L407.543 147H400.919L392.615 122.136L384.167 147H377.495L366.359 113.4H372.839L381.191 138.936L389.879 113.4H395.639L404.135 139.08L412.727 113.4H418.679ZM448.962 141.768V147H423.762V113.4H448.29V118.632H430.002V127.368H446.226V132.504H430.002V141.768H448.962ZM479.726 129.528C481.582 130.136 483.054 131.16 484.142 132.6C485.23 134.008 485.774 135.768 485.774 137.88C485.774 140.792 484.654 143.048 482.414 144.648C480.174 146.216 476.91 147 472.622 147H455.918V113.4H471.662C475.63 113.4 478.686 114.184 480.83 115.752C482.974 117.288 484.046 119.416 484.046 122.136C484.046 123.8 483.662 125.272 482.894 126.552C482.126 127.832 481.07 128.824 479.726 129.528ZM462.158 118.296V127.56H470.99C473.166 127.56 474.83 127.176 475.982 126.408C477.166 125.608 477.758 124.456 477.758 122.952C477.758 121.416 477.166 120.264 475.982 119.496C474.83 118.696 473.166 118.296 470.99 118.296H462.158ZM472.238 142.104C477.07 142.104 479.486 140.488 479.486 137.256C479.486 134.024 477.07 132.408 472.238 132.408H462.158V142.104H472.238ZM516.116 147.48C513.524 147.48 511.012 147.112 508.58 146.376C506.18 145.64 504.276 144.664 502.868 143.448L505.028 138.6C506.404 139.688 508.084 140.584 510.068 141.288C512.084 141.96 514.1 142.296 516.116 142.296C518.612 142.296 520.468 141.896 521.684 141.096C522.932 140.296 523.556 139.24 523.556 137.928C523.556 136.968 523.204 136.184 522.5 135.576C521.828 134.936 520.964 134.44 519.908 134.088C518.852 133.736 517.412 133.336 515.588 132.888C513.028 132.28 510.948 131.672 509.348 131.064C507.78 130.456 506.42 129.512 505.268 128.232C504.148 126.92 503.588 125.16 503.588 122.952C503.588 121.096 504.084 119.416 505.076 117.912C506.1 116.376 507.62 115.16 509.636 114.264C511.684 113.368 514.18 112.92 517.124 112.92C519.172 112.92 521.188 113.176 523.172 113.688C525.156 114.2 526.868 114.936 528.307 115.896L526.34 120.744C524.868 119.88 523.332 119.224 521.732 118.776C520.132 118.328 518.58 118.104 517.076 118.104C514.612 118.104 512.772 118.52 511.556 119.352C510.372 120.184 509.78 121.288 509.78 122.664C509.78 123.624 510.116 124.408 510.788 125.016C511.492 125.624 512.372 126.104 513.428 126.456C514.484 126.808 515.924 127.208 517.748 127.656C520.244 128.232 522.292 128.84 523.892 129.48C525.492 130.088 526.852 131.032 527.972 132.312C529.124 133.592 529.7 135.32 529.7 137.496C529.7 139.352 529.188 141.032 528.164 142.536C527.172 144.04 525.652 145.24 523.604 146.136C521.556 147.032 519.06 147.48 516.116 147.48ZM551.439 147.48C548.047 147.48 544.975 146.744 542.223 145.272C539.503 143.768 537.359 141.704 535.791 139.08C534.255 136.456 533.487 133.496 533.487 130.2C533.487 126.904 534.271 123.944 535.839 121.32C537.407 118.696 539.551 116.648 542.271 115.176C545.023 113.672 548.095 112.92 551.487 112.92C554.239 112.92 556.751 113.4 559.023 114.36C561.295 115.32 563.215 116.712 564.783 118.536L560.751 122.328C558.319 119.704 555.327 118.392 551.775 118.392C549.471 118.392 547.407 118.904 545.583 119.928C543.759 120.92 542.335 122.312 541.311 124.104C540.287 125.896 539.775 127.928 539.775 130.2C539.775 132.472 540.287 134.504 541.311 136.296C542.335 138.088 543.759 139.496 545.583 140.52C547.407 141.512 549.471 142.008 551.775 142.008C555.327 142.008 558.319 140.68 560.751 138.024L564.783 141.864C563.215 143.688 561.279 145.08 558.975 146.04C556.703 147 554.191 147.48 551.439 147.48ZM592.746 147L585.882 137.16C585.594 137.192 585.162 137.208 584.586 137.208H577.002V147H570.762V113.4H584.586C587.498 113.4 590.026 113.88 592.17 114.84C594.346 115.8 596.01 117.176 597.162 118.968C598.314 120.76 598.89 122.888 598.89 125.352C598.89 127.88 598.266 130.056 597.018 131.88C595.802 133.704 594.042 135.064 591.738 135.96L599.466 147H592.746ZM592.602 125.352C592.602 123.208 591.898 121.56 590.49 120.408C589.082 119.256 587.018 118.68 584.298 118.68H577.002V132.072H584.298C587.018 132.072 589.082 131.496 590.49 130.344C591.898 129.16 592.602 127.496 592.602 125.352ZM627.663 139.224H610.863L607.551 147H601.119L616.239 113.4H622.383L637.551 147H631.023L627.663 139.224ZM625.599 134.328L619.263 119.64L612.975 134.328H625.599ZM655.649 113.4C658.561 113.4 661.089 113.88 663.233 114.84C665.409 115.8 667.073 117.176 668.225 118.968C669.377 120.76 669.953 122.888 669.953 125.352C669.953 127.784 669.377 129.912 668.225 131.736C667.073 133.528 665.409 134.904 663.233 135.864C661.089 136.824 658.561 137.304 655.649 137.304H648.065V147H641.825V113.4H655.649ZM655.361 132.024C658.081 132.024 660.145 131.448 661.552 130.296C662.961 129.144 663.665 127.496 663.665 125.352C663.665 123.208 662.961 121.56 661.552 120.408C660.145 119.256 658.081 118.68 655.361 118.68H648.065V132.024H655.361ZM676.184 113.4H682.424V147H676.184V113.4ZM721.368 113.4V147H716.232L697.704 124.248V147H691.512V113.4H696.648L715.176 136.152V113.4H721.368ZM753.315 129.816H759.219V143.208C757.491 144.584 755.475 145.64 753.171 146.376C750.867 147.112 748.499 147.48 746.067 147.48C742.643 147.48 739.555 146.744 736.803 145.272C734.051 143.768 731.891 141.704 730.323 139.08C728.755 136.456 727.971 133.496 727.971 130.2C727.971 126.904 728.755 123.944 730.323 121.32C731.891 118.696 734.051 116.648 736.803 115.176C739.587 113.672 742.707 112.92 746.163 112.92C748.979 112.92 751.539 113.384 753.843 114.312C756.147 115.24 758.083 116.6 759.651 118.392L755.715 122.232C753.155 119.672 750.067 118.392 746.451 118.392C744.083 118.392 741.971 118.888 740.115 119.88C738.291 120.872 736.851 122.264 735.795 124.056C734.771 125.848 734.259 127.896 734.259 130.2C734.259 132.44 734.771 134.456 735.795 136.248C736.851 138.04 738.291 139.448 740.115 140.472C741.971 141.496 744.067 142.008 746.403 142.008C749.027 142.008 751.331 141.432 753.315 140.28V129.816ZM436.046 172.4L424.91 206H418.286L409.982 181.136L401.534 206H394.862L383.726 172.4H390.206L398.558 197.936L407.246 172.4H413.006L421.502 198.08L430.094 172.4H436.046ZM441.129 172.4H447.369V206H441.129V172.4ZM463.273 177.68H452.137V172.4H480.649V177.68H469.513V206H463.273V177.68ZM515.188 172.4V206H508.948V191.6H491.572V206H485.332V172.4H491.572V186.272H508.948V172.4H515.188ZM551.281 172.4C554.193 172.4 556.721 172.88 558.865 173.84C561.041 174.8 562.705 176.176 563.857 177.968C565.009 179.76 565.585 181.888 565.585 184.352C565.585 186.784 565.009 188.912 563.857 190.736C562.705 192.528 561.041 193.904 558.865 194.864C556.721 195.824 554.193 196.304 551.281 196.304H543.697V206H537.457V172.4H551.281ZM550.993 191.024C553.713 191.024 555.777 190.448 557.185 189.296C558.593 188.144 559.297 186.496 559.297 184.352C559.297 182.208 558.593 180.56 557.185 179.408C555.777 178.256 553.713 177.68 550.993 177.68H543.697V191.024H550.993ZM586.313 194.144V206H580.073V194.24L566.873 172.4H573.545L583.385 188.768L593.321 172.4H599.465L586.313 194.144ZM609.898 177.68H598.762V172.4H627.274V177.68H616.138V206H609.898V177.68ZM661.813 172.4V206H655.573V191.6H638.197V206H631.957V172.4H638.197V186.272H655.573V172.4H661.813ZM686.513 206.48C683.089 206.48 680.001 205.744 677.249 204.272C674.497 202.768 672.337 200.704 670.769 198.08C669.201 195.424 668.417 192.464 668.417 189.2C668.417 185.936 669.201 182.992 670.769 180.368C672.337 177.712 674.497 175.648 677.249 174.176C680.001 172.672 683.089 171.92 686.513 171.92C689.937 171.92 693.025 172.672 695.777 174.176C698.529 175.648 700.689 177.696 702.257 180.32C703.825 182.944 704.609 185.904 704.609 189.2C704.609 192.496 703.825 195.456 702.257 198.08C700.689 200.704 698.529 202.768 695.777 204.272C693.025 205.744 689.937 206.48 686.513 206.48ZM686.513 201.008C688.753 201.008 690.769 200.512 692.561 199.52C694.353 198.496 695.761 197.088 696.785 195.296C697.809 193.472 698.321 191.44 698.321 189.2C698.321 186.96 697.809 184.944 696.785 183.152C695.761 181.328 694.353 179.92 692.561 178.928C690.769 177.904 688.753 177.392 686.513 177.392C684.273 177.392 682.257 177.904 680.465 178.928C678.673 179.92 677.265 181.328 676.241 183.152C675.217 184.944 674.705 186.96 674.705 189.2C674.705 191.44 675.217 193.472 676.241 195.296C677.265 197.088 678.673 198.496 680.465 199.52C682.257 200.512 684.273 201.008 686.513 201.008ZM741.079 172.4V206H735.943L717.415 183.248V206H711.223V172.4H716.359L734.887 195.152V172.4H741.079Z" fill="black"/>
</svg>
